<svg xmlns="http://www.w3.org/2000/svg" viewBox="0 0 488.3 1020"><path d="M317.31,687.21,203.61,651.8l40.54,268.34h73.16Z" fill="#b4d2d7"/><path d="M171,687.21V920.14h73.16V651.8Z" fill="#e1ebf0"/><path d="M460.83,200.86,440.67,0H244.15L203.61,236.27Z" fill="#ffdfb8"/><path d="M244.15,0H47.62L27.47,200.86l216.68,35.41Z" fill="#ffe9cc"/><path d="M487.34,465.06l-26.51-264.2H244.15L203.61,400.48,244.15,697C387.39,697,499.85,589.72,487.34,465.06Z" fill="#ffb048"/><path d="M27.47,200.86,1,465.06C-11.56,589.72,100.9,697,244.15,697V200.86Z" fill="#ffc764"/><path d="M244.15,1019.19,474.07,872.54V747L244.15,893.6l-20.27,26.54Z" fill="#a5b2b5"/><path d="M14.23,747,244.15,893.6V1020L14.23,873.36Z" fill="#efe6e6"/></svg>